<svg width="19" height="18" viewBox="0 0 19 18" fill="none" xmlns="http://www.w3.org/2000/svg">
<path d="M16.152 18H1.98235C1.69574 17.9986 1.41281 17.9374 1.15287 17.8205C0.892936 17.7036 0.662112 17.5338 0.476161 17.3227C0.290211 17.1115 0.153514 16.864 0.0754039 16.597C-0.00270624 16.33 -0.0203899 16.0499 0.02356 15.7757L1.59723 6.13285C1.66986 5.67964 1.90694 5.26632 2.26593 4.96707C2.62491 4.66782 3.0823 4.50222 3.55602 4.5H14.5783C15.0511 4.50198 15.5077 4.66666 15.8665 4.96462C16.2254 5.26258 16.4631 5.67439 16.5371 6.12642L18.1108 15.7693C18.1558 16.0439 18.1389 16.3248 18.0613 16.5926C17.9837 16.8603 17.8471 17.1087 17.6611 17.3206C17.475 17.5325 17.2438 17.7029 16.9833 17.8202C16.7229 17.9374 16.4393 17.9988 16.152 18ZM3.55602 5.78571C3.39686 5.78373 3.24227 5.83716 3.12039 5.93628C2.99852 6.03539 2.91747 6.17359 2.89202 6.32571L1.31835 15.9685C1.30416 16.0599 1.31046 16.1531 1.33681 16.2418C1.36317 16.3305 1.40896 16.4128 1.47107 16.4828C1.53268 16.5526 1.609 16.6087 1.6949 16.6476C1.7808 16.6864 1.87428 16.7069 1.96907 16.7078H16.152C16.2468 16.7069 16.3403 16.6864 16.4262 16.6476C16.5121 16.6087 16.5884 16.5526 16.65 16.4828C16.7121 16.4128 16.7579 16.3305 16.7843 16.2418C16.8106 16.1531 16.8169 16.0599 16.8027 15.9685L15.2291 6.32571C15.2036 6.17359 15.1226 6.03539 15.0007 5.93628C14.8788 5.83716 14.7242 5.78373 14.5651 5.78571H3.55602Z" fill="black"/>
<path d="M13.7151 5.78572C13.539 5.78572 13.3701 5.71799 13.2456 5.59743C13.1211 5.47688 13.0511 5.31336 13.0511 5.14287C13.0511 4.11989 12.6314 3.13881 11.8843 2.41545C11.1371 1.69209 10.1238 1.28572 9.06719 1.28572C8.01058 1.28572 6.99724 1.69209 6.25011 2.41545C5.50297 3.13881 5.08323 4.11989 5.08323 5.14287C5.08323 5.31336 5.01328 5.47688 4.88875 5.59743C4.76423 5.71799 4.59534 5.78572 4.41924 5.78572C4.24314 5.78572 4.07425 5.71799 3.94973 5.59743C3.82521 5.47688 3.75525 5.31336 3.75525 5.14287C3.75525 3.77889 4.3149 2.47078 5.31108 1.50631C6.30726 0.541836 7.65837 0 9.06719 0C10.476 0 11.8271 0.541836 12.8233 1.50631C13.8195 2.47078 14.3791 3.77889 14.3791 5.14287C14.3791 5.31336 14.3092 5.47688 14.1846 5.59743C14.0601 5.71799 13.8912 5.78572 13.7151 5.78572Z" fill="black"/>
<path d="M9.06719 12.8572C7.65837 12.8572 6.30726 12.3154 5.31108 11.3509C4.3149 10.3864 3.75525 9.07834 3.75525 7.71436C3.75525 7.54387 3.82521 7.38035 3.94973 7.25979C4.07425 7.13923 4.24314 7.0715 4.41924 7.0715C4.59534 7.0715 4.76423 7.13923 4.88875 7.25979C5.01328 7.38035 5.08323 7.54387 5.08323 7.71436C5.08323 8.73734 5.50297 9.71843 6.25011 10.4418C6.99724 11.1651 8.01058 11.5715 9.06719 11.5715C10.1238 11.5715 11.1371 11.1651 11.8843 10.4418C12.6314 9.71843 13.0511 8.73734 13.0511 7.71436C13.0511 7.54387 13.1211 7.38035 13.2456 7.25979C13.3701 7.13923 13.539 7.0715 13.7151 7.0715C13.8912 7.0715 14.0601 7.13923 14.1846 7.25979C14.3092 7.38035 14.3791 7.54387 14.3791 7.71436C14.3791 9.07834 13.8195 10.3864 12.8233 11.3509C11.8271 12.3154 10.476 12.8572 9.06719 12.8572Z" fill="black"/>
</svg>
